<svg width="200" height="50" viewBox="0 0 200 50" fill="none" xmlns="http://www.w3.org/2000/svg">
    <style>
        .heart { fill: #00A99D; }
        .cross { fill: #0072BC; }
        .map { fill: #FF9F1C; }
        .text { fill: #333333; font-family: Arial, sans-serif; }
    </style>
    
    <!-- Cœur -->
    <path class="heart" d="M25,45 C10,35 0,25 0,15 C0,5 10,0 20,5 C25,7.5 27.5,12.5 25,20 C22.5,12.5 25,7.5 30,5 C40,0 50,5 50,15 C50,25 40,35 25,45 Z"/>
    
    <!-- Croix -->
    <path class="cross" d="M20,10 L30,10 L30,5 L35,5 L35,10 L40,10 L40,15 L35,15 L35,20 L30,20 L30,15 L20,15 Z" transform="translate(-7.5, -2.5)"/>
    
    <!-- Carte du Sénégal stylisée -->
    <path class="map" d="M25,10 L35,5 L40,10 L38,15 L40,20 L35,25 L30,23 L25,25 L20,20 Z" transform="translate(10, -2.5)"/>
    
    <!-- Texte -->
    <text x="60" y="30" class="text" font-size="24" font-weight="bold">Sénégal Care</text>
</svg> 